<svg width="36" height="33" viewBox="0 0 36 33" fill="none" xmlns="http://www.w3.org/2000/svg">
<path d="M3 12H3.26835C3.74213 12 3.97922 12 4.17246 12.0855C4.34283 12.1608 4.48871 12.2823 4.59375 12.4362C4.71289 12.6107 4.75578 12.8437 4.8418 13.3096L7.00004 25L17.4195 25C17.8739 25 18.1016 25 18.2896 24.9198C18.4554 24.8491 18.5989 24.7348 18.7051 24.5891C18.8255 24.424 18.8763 24.2025 18.9785 23.7597L20.5477 16.9597C20.7022 16.2902 20.7796 15.9556 20.6946 15.6926C20.6201 15.4621 20.4639 15.2663 20.256 15.1419C20.0189 15 19.6758 15 18.9887 15H5.5M18 30C17.4477 30 17 29.5523 17 29C17 28.4477 17.4477 28 18 28C18.5523 28 19 28.4477 19 29C19 29.5523 18.5523 30 18 30ZM8 30C7.44772 30 7 29.5523 7 29C7 28.4477 7.44772 28 8 28C8.55228 28 9 28.4477 9 29C9 29.5523 8.55228 30 8 30Z" stroke="#FCFCFC" stroke-width="2" stroke-linecap="round" stroke-linejoin="round"/>
<rect x="12" width="24" height="24" rx="12" fill="#1E1E1E"/>
<path d="M20 11C19.4477 11 19 11.4477 19 12C19 12.5523 19.4477 13 20 13V11ZM28 13C28.5523 13 29 12.5523 29 12C29 11.4477 28.5523 11 28 11V13ZM23 16C23 16.5523 23.4477 17 24 17C24.5523 17 25 16.5523 25 16H23ZM25 8C25 7.44772 24.5523 7 24 7C23.4477 7 23 7.44772 23 8H25ZM24 20C19.5817 20 16 16.4183 16 12H14C14 17.5228 18.4772 22 24 22V20ZM16 12C16 7.58172 19.5817 4 24 4V2C18.4772 2 14 6.47715 14 12H16ZM24 4C28.4183 4 32 7.58172 32 12H34C34 6.47715 29.5228 2 24 2V4ZM32 12C32 16.4183 28.4183 20 24 20V22C29.5228 22 34 17.5228 34 12H32ZM20 13H28V11H20V13ZM25 16V8H23V16H25Z" fill="white"/>
</svg>
