<svg width="66" height="71" viewBox="0 0 66 71" fill="none" xmlns="http://www.w3.org/2000/svg">
<g filter="url(#filter0_d_142_99)">
<path d="M31 0L3 54L53 38L45.5695 25.1656L39.5 27.5L42.5 33L16.5 42.5L31.5 13L35.5 21L41.4388 18.0306L31 0Z" fill="#1E1E1E"/>
<path d="M62 53L55 43.5L17.5 54L62 53Z" fill="#1E1E1E"/>
</g>
<path d="M0.67 66.32C0.67 66.5733 0.76 66.79 0.94 66.97C1.12 67.15 1.34333 67.24 1.61 67.24C1.89 67.24 2.11667 67.15 2.29 66.97C2.46333 66.79 2.55 66.5733 2.55 66.32C2.55 66.0667 2.46333 65.85 2.29 65.67C2.11667 65.49 1.89 65.4 1.61 65.4C1.34333 65.4 1.12 65.49 0.94 65.67C0.76 65.85 0.67 66.0667 0.67 66.32ZM5.41266 63.83L7.37266 67H9.35266L7.16266 63.83H5.41266ZM3.66266 60V67H5.35266V60H3.66266ZM4.72266 61.43H6.09266C6.31932 61.43 6.51266 61.4667 6.67266 61.54C6.83932 61.6133 6.96599 61.72 7.05266 61.86C7.13932 61.9933 7.18266 62.1567 7.18266 62.35C7.18266 62.5433 7.13932 62.71 7.05266 62.85C6.96599 62.9833 6.83932 63.0867 6.67266 63.16C6.51266 63.2267 6.31932 63.26 6.09266 63.26H4.72266V64.57H6.21266C6.81266 64.57 7.31266 64.4733 7.71266 64.28C8.11266 64.0867 8.41599 63.82 8.62266 63.48C8.82932 63.1333 8.93266 62.7367 8.93266 62.29C8.93266 61.8367 8.82932 61.44 8.62266 61.1C8.41599 60.7533 8.11266 60.4833 7.71266 60.29C7.31266 60.0967 6.81266 60 6.21266 60H4.72266V61.43ZM9.83727 60V67H11.5273V60H9.83727ZM10.8973 61.39H12.2673C12.6073 61.39 12.8739 61.4667 13.0673 61.62C13.2606 61.7733 13.3573 61.9967 13.3573 62.29C13.3573 62.5767 13.2606 62.7967 13.0673 62.95C12.8739 63.1033 12.6073 63.18 12.2673 63.18H10.8973V64.57H12.2673C12.8606 64.57 13.3573 64.48 13.7573 64.3C14.1639 64.1133 14.4706 63.85 14.6773 63.51C14.8839 63.1633 14.9873 62.7567 14.9873 62.29C14.9873 61.81 14.8839 61.4 14.6773 61.06C14.4706 60.72 14.1639 60.46 13.7573 60.28C13.3573 60.0933 12.8606 60 12.2673 60H10.8973V61.39ZM15.7177 60V64.7C15.7177 65.14 15.7877 65.5233 15.9277 65.85C16.0744 66.1767 16.2744 66.4467 16.5277 66.66C16.7877 66.8667 17.0877 67.0233 17.4277 67.13C17.7677 67.2367 18.1344 67.29 18.5277 67.29C18.9211 67.29 19.2877 67.2367 19.6277 67.13C19.9744 67.0233 20.2744 66.8667 20.5277 66.66C20.7877 66.4467 20.9877 66.1767 21.1277 65.85C21.2744 65.5233 21.3477 65.14 21.3477 64.7V60H19.6577V64.58C19.6577 64.9333 19.5644 65.22 19.3777 65.44C19.1911 65.66 18.9077 65.77 18.5277 65.77C18.1544 65.77 17.8744 65.66 17.6877 65.44C17.5011 65.22 17.4077 64.9333 17.4077 64.58V60H15.7177ZM23.7395 63.52H25.0495C25.5361 63.52 25.9628 63.4533 26.3295 63.32C26.7028 63.18 26.9961 62.98 27.2095 62.72C27.4295 62.46 27.5395 62.1467 27.5395 61.78C27.5395 61.38 27.4295 61.05 27.2095 60.79C26.9961 60.5233 26.7028 60.3267 26.3295 60.2C25.9628 60.0667 25.5361 60 25.0495 60H22.4795V67H25.2195C25.7728 67 26.2528 66.9333 26.6595 66.8C27.0661 66.66 27.3795 66.4467 27.5995 66.16C27.8261 65.8733 27.9395 65.4967 27.9395 65.03C27.9395 64.6767 27.8595 64.3767 27.6995 64.13C27.5461 63.8767 27.3395 63.67 27.0795 63.51C26.8195 63.3433 26.5295 63.2233 26.2095 63.15C25.8895 63.0767 25.5595 63.04 25.2195 63.04H23.7395V63.96H25.0295C25.1961 63.96 25.3461 63.9767 25.4795 64.01C25.6195 64.0367 25.7428 64.0833 25.8495 64.15C25.9561 64.2167 26.0395 64.3033 26.0995 64.41C26.1595 64.5167 26.1895 64.6433 26.1895 64.79C26.1895 65.0167 26.1361 65.1967 26.0295 65.33C25.9295 65.4567 25.7928 65.55 25.6195 65.61C25.4461 65.6633 25.2495 65.69 25.0295 65.69H24.1695V61.31H24.8695C25.1628 61.31 25.3895 61.37 25.5495 61.49C25.7095 61.61 25.7895 61.79 25.7895 62.03C25.7895 62.19 25.7528 62.3267 25.6795 62.44C25.6061 62.5467 25.4995 62.63 25.3595 62.69C25.2261 62.75 25.0628 62.78 24.8695 62.78H23.7395V63.52ZM29.9401 67H33.4701V65.61H29.9401V67ZM29.9401 61.39H33.4701V60H29.9401V61.39ZM29.9401 64H33.2701V62.64H29.9401V64ZM28.8201 60V67H30.4401V60H28.8201ZM34.5455 60V67H36.2355V60H34.5455ZM35.6055 61.39H36.9755C37.3155 61.39 37.5821 61.4667 37.7755 61.62C37.9688 61.7733 38.0655 61.9967 38.0655 62.29C38.0655 62.5767 37.9688 62.7967 37.7755 62.95C37.5821 63.1033 37.3155 63.18 36.9755 63.18H35.6055V64.57H36.9755C37.5688 64.57 38.0655 64.48 38.4655 64.3C38.8721 64.1133 39.1788 63.85 39.3855 63.51C39.5921 63.1633 39.6955 62.7567 39.6955 62.29C39.6955 61.81 39.5921 61.4 39.3855 61.06C39.1788 60.72 38.8721 60.46 38.4655 60.28C38.0655 60.0933 37.5688 60 36.9755 60H35.6055V61.39ZM40.4259 60V64.7C40.4259 65.14 40.4959 65.5233 40.6359 65.85C40.7826 66.1767 40.9826 66.4467 41.2359 66.66C41.4959 66.8667 41.7959 67.0233 42.1359 67.13C42.4759 67.2367 42.8426 67.29 43.2359 67.29C43.6293 67.29 43.9959 67.2367 44.3359 67.13C44.6826 67.0233 44.9826 66.8667 45.2359 66.66C45.4959 66.4467 45.6959 66.1767 45.8359 65.85C45.9826 65.5233 46.0559 65.14 46.0559 64.7V60H44.3659V64.58C44.3659 64.9333 44.2726 65.22 44.0859 65.44C43.8993 65.66 43.6159 65.77 43.2359 65.77C42.8626 65.77 42.5826 65.66 42.3959 65.44C42.2093 65.22 42.1159 64.9333 42.1159 64.58V60H40.4259ZM48.2877 65.65H51.9877L51.8777 64.36H48.4077L48.2877 65.65ZM50.1177 62.57L51.1077 64.84L51.0477 65.27L51.8877 67H53.8077L50.1177 59.56L46.4377 67H48.3477L49.2177 65.2L49.1377 64.83L50.1177 62.57ZM54.2412 60V67H55.9612V60H54.2412ZM58.2443 65.65H61.9443L61.8343 64.36H58.3643L58.2443 65.65ZM60.0743 62.57L61.0643 64.84L61.0043 65.27L61.8443 67H63.7643L60.0743 59.56L56.3943 67H58.3043L59.1743 65.2L59.0943 64.83L60.0743 62.57Z" fill="black"/>
<defs>
<filter id="filter0_d_142_99" x="3" y="0" width="63" height="58" filterUnits="userSpaceOnUse" color-interpolation-filters="sRGB">
<feFlood flood-opacity="0" result="BackgroundImageFix"/>
<feColorMatrix in="SourceAlpha" type="matrix" values="0 0 0 0 0 0 0 0 0 0 0 0 0 0 0 0 0 0 127 0" result="hardAlpha"/>
<feOffset dx="2" dy="2"/>
<feGaussianBlur stdDeviation="1"/>
<feComposite in2="hardAlpha" operator="out"/>
<feColorMatrix type="matrix" values="0 0 0 0 0 0 0 0 0 0 0 0 0 0 0 0 0 0 0.05 0"/>
<feBlend mode="normal" in2="BackgroundImageFix" result="effect1_dropShadow_142_99"/>
<feBlend mode="normal" in="SourceGraphic" in2="effect1_dropShadow_142_99" result="shape"/>
</filter>
</defs>
</svg>
